<?xml version="1.0" standalone="no"?><!DOCTYPE svg PUBLIC "-//W3C//DTD SVG 1.1//EN" "http://www.w3.org/Graphics/SVG/1.1/DTD/svg11.dtd"><svg t="1664527686721" class="icon" viewBox="0 0 1024 1024" version="1.1" xmlns="http://www.w3.org/2000/svg" p-id="1066" xmlns:xlink="http://www.w3.org/1999/xlink" width="200" height="200"><path d="M896.48 156.48H685.07c-51.42 0-101.45 14.71-144.64 42.52l-28.33 18.17-28.26-18.12c-43.15-27.85-93.19-42.57-144.71-42.57H127.72c-33.42 0-60.62 27.2-60.62 60.62v524.83c0 33.42 27.2 60.62 60.62 60.62h211.41c39.49 0 77.89 11.29 111.07 32.66L491.81 862c6.16 3.78 13.16 5.78 20.2 5.78 7.85 0 15.37-2.34 20.78-6.14l41.01-26.42c33.26-21.37 71.73-32.67 111.27-32.67h211.41c33.42 0 60.62-27.2 60.62-60.62V217.09c0-33.42-27.2-60.61-60.62-60.61zM339.13 740.45H129.19V218.57h209.94c39.55 0 77.95 11.29 111.11 32.69l31.07 19.93c-0.1 1.01-0.3 1.99-0.3 3.02v507.11c-42.58-26.69-91.54-40.87-141.88-40.87z m555.88 0H685.07c-50.34 0-99.31 14.16-141.97 40.83V274.22c0-1.02-0.2-1.98-0.3-2.97l31.2-20.01c33.19-21.36 71.59-32.66 111.07-32.66h209.94v521.87z" fill="#666666" p-id="1067"></path><path d="M381.17 369H258.55c-17.15 0-31.05 13.9-31.05 31.05s13.9 31.05 31.05 31.05h122.62c17.15 0 31.05-13.9 31.05-31.05S398.32 369 381.17 369zM611.89 400.05c0 17.15 13.9 31.05 31.05 31.05h122.62c17.15 0 31.05-13.9 31.05-31.05S782.7 369 765.55 369H642.94c-17.15 0-31.05 13.9-31.05 31.05zM381.17 498.36H258.55c-17.15 0-31.05 13.9-31.05 31.05s13.9 31.05 31.05 31.05h122.62c17.15 0 31.05-13.9 31.05-31.05s-13.9-31.05-31.05-31.05zM765.55 498.36H642.94c-17.15 0-31.05 13.9-31.05 31.05s13.9 31.05 31.05 31.05h122.62c17.15 0 31.05-13.9 31.05-31.05-0.01-17.15-13.91-31.05-31.06-31.05z" fill="#666666" p-id="1068"></path></svg>